<?xml version="1.0" encoding="utf-8"?>
<!-- Generator: Adobe Illustrator 19.2.1, SVG Export Plug-In . SVG Version: 6.00 Build 0)  -->
<svg version="1.1" xmlns="http://www.w3.org/2000/svg" xmlns:xlink="http://www.w3.org/1999/xlink" x="0px" y="0px"
	 viewBox="0 0 16 16" style="enable-background:new 0 0 16 16;" xml:space="preserve">
<style type="text/css">
	.st0{fill:none;stroke:#C5C7C9;stroke-linecap:round;stroke-linejoin:round;stroke-miterlimit:10;}
</style>
<g id="Navigation">
</g>
<g id="Working">
</g>
<g id="References">
	<g>
		<path class="st0" d="M2,3.9v5.8h4.6v-4V4.9C6.6,4.4,7,4,7.5,4"/>
		<path class="st0" d="M9.5,3.1C9.5,3.6,9,4,8.5,4"/>
		<path class="st0" d="M8.5,2.1c0.5,0,0.9,0.4,0.9,0.9"/>
		<path class="st0" d="M8.5,4h-1C7,4,6.6,4.4,6.6,4.9"/>
		<path class="st0" d="M7.5,4h1C9,4,9.5,3.6,9.5,3.1S9,2.1,8.5,2.1H2v1.8"/>
		<path class="st0" d="M6.6,4.9c0,0.5,0.4,0.9,0.9,0.9h2"/>
		<line class="st0" x1="9.5" y1="3.1" x2="9.5" y2="5.8"/>
		<path class="st0" d="M9.5,5.8h-2C7,5.8,6.6,5.4,6.6,4.9v0.9v4v3.7c0,0.5,0.4,0.9,0.9,0.9h5h1.3H14v0v-1.4V5.8H9.5z"/>
	</g>
</g>
</svg>
